<svg xmlns="http://www.w3.org/2000/svg" width="98" height="98" viewBox="0 0 98 98"><g transform="translate(0 -0.071)"><circle cx="49" cy="49" r="49" transform="translate(0 0.071)" fill="#f5f5f6"/><path d="M37.662,31H30" transform="translate(15.971 16.503)" fill="none" stroke="#79818c" stroke-linecap="round" stroke-linejoin="round" stroke-width="2"/><path d="M29.949,20.455q.34-4.066,7.216-3.347,6.27.724,6.4,3.216a4.213,4.213,0,0,1-.134,1.05l-.944,6.56q3.032.263-.676,5.118L41.478,34.7a3.726,3.726,0,0,1-2.356,3.214c0,.043-.023.065-.07.065v3.543m-9.1-21.063h-.674q-2.56.395-1.954,2.627l1.012,4.853q-2.966.263.674,5.118l.268,1.641a4.076,4.076,0,0,0,2.362,3.215v3.607M29.949,20.455Q35.612,24.2,40.4,24.262" transform="translate(14.374 9.05)" fill="none" stroke="#79818c" stroke-linecap="round" stroke-linejoin="round" stroke-width="2"/><path d="M41.06,33l8.76,3.973a3.72,3.72,0,0,1,2.271,3.972v8.143a21.138,21.138,0,0,1-14.015,5.365h-.907a21.647,21.647,0,0,1-14.145-5.365V40.946a3.723,3.723,0,0,1,2.27-3.973L33.925,33l2.228,5.627" transform="translate(12.244 17.568)" fill="none" stroke="#79818c" stroke-linecap="round" stroke-linejoin="round" stroke-width="2"/><path d="M43.856,36.065l-5.262,6.129-2.131-3.64m0,0H33.957L31.7,42.194,27,36.065m9.463,2.49L38.594,33" transform="translate(14.374 17.568)" fill="none" stroke="#79818c" stroke-linecap="round" stroke-linejoin="round" stroke-width="2"/></g></svg>