<svg xmlns="http://www.w3.org/2000/svg" width="97" height="97" viewBox="0 0 97 97"><g transform="translate(0 0.432)"><circle cx="48.5" cy="48.5" r="48.5" transform="translate(0 -0.432)" fill="#f5f5f6"/><rect width="49" height="49" transform="translate(24 23.568)" fill="rgba(196,196,196,0.01)"/><path d="M26.667,17.333H40.75" transform="translate(13.763 8.935)" fill="none" stroke="#79818c" stroke-linecap="round" stroke-linejoin="round" stroke-width="2"/><path d="M32.667,35.075,40.015,28" transform="translate(16.86 14.44)" fill="none" stroke="#79818c" stroke-linecap="round" stroke-width="2"/><path d="M31.894,37.121a2.561,2.561,0,1,0-2.56-2.561A2.561,2.561,0,0,0,31.894,37.121Z" transform="translate(15.14 16.505)" fill="none" stroke="#79818c" stroke-width="2"/><path d="M29.333,23.4V17.333H35.4V23.4" transform="translate(15.14 8.935)" fill="none" stroke="#79818c" stroke-linecap="round" stroke-linejoin="round" stroke-width="2"/><path d="M37.871,59.742a19.2,19.2,0,1,0-19.2-19.2A19.2,19.2,0,0,0,37.871,59.742Z" transform="translate(9.634 11)" fill="none" stroke="#79818c" stroke-linecap="round" stroke-linejoin="round" stroke-width="2"/><path d="M22.561,25.227,20,22.667" transform="translate(10.323 11.688)" fill="none" stroke="#79818c" stroke-linecap="round" stroke-width="2"/></g></svg>