<svg xmlns="http://www.w3.org/2000/svg" width="97.306" height="97.306" viewBox="0 0 97.306 97.306"><path d="M97.306,48.653a46.3,46.3,0,0,1-14.353,34.3,46.554,46.554,0,0,1-34.3,14.353A46.7,46.7,0,0,1,14.231,82.953,46.493,46.493,0,0,1,0,48.653,46.892,46.892,0,0,1,14.231,14.231,46.892,46.892,0,0,1,48.653,0a46.749,46.749,0,0,1,34.3,14.231A46.7,46.7,0,0,1,97.306,48.653Z" transform="translate(0 0)" fill="#f5f5f6" fill-rule="evenodd"/><g transform="translate(22.806 22.806)"><path d="M59.413,58.975a25.23,25.23,0,0,1-18.495,7.719,24.288,24.288,0,0,1-18.2-7.719A24.747,24.747,0,0,1,15,40.629a24.924,24.924,0,0,1,7.716-18.495A24.725,24.725,0,0,1,36.552,15v9.756A16,16,0,0,0,24.464,40.629a16.026,16.026,0,0,0,4.808,11.793,15.623,15.623,0,0,0,11.647,4.951,16.1,16.1,0,0,0,11.8-4.951A15.919,15.919,0,0,0,57.009,45h9.612a24.632,24.632,0,0,1-7.209,13.979Z" transform="translate(-15 -15)" fill="none" stroke="#79818c" stroke-linecap="round" stroke-linejoin="round" stroke-width="2" fill-rule="evenodd"/><path d="M49.046,22.11a25.054,25.054,0,0,1,7.28,14.125H46.642a15.931,15.931,0,0,0-4.295-7.427,15.612,15.612,0,0,0-6.407-3.785,8.562,8.562,0,0,0-1.02-.292V15.047c.343.072.68.144,1.02.218A24.6,24.6,0,0,1,49.046,22.11Z" transform="translate(-4.633 -14.975)" fill="none" stroke="#79818c" stroke-linecap="round" stroke-linejoin="round" stroke-width="2" fill-rule="evenodd"/></g></svg>