<svg id="Group_31" data-name="Group 31" xmlns="http://www.w3.org/2000/svg" width="97.233" height="97.232" viewBox="0 0 97.233 97.232">
  <path id="Path_29" data-name="Path 29" d="M97.233,48.616A48.616,48.616,0,1,0,48.616,97.233,48.616,48.616,0,0,0,97.233,48.616Z" fill="#f5f5f6"/>
  <path id="Path_30" data-name="Path 30" d="M27.969,58.731a1.519,1.519,0,0,1-2.326-1.712l3.928-11.911a1.519,1.519,0,0,0-.559-1.712l-10.256-7.33a1.519,1.519,0,0,1,.883-2.755H32.376a1.519,1.519,0,0,0,1.443-1.045l3.946-12.015a1.519,1.519,0,0,1,2.887,0L44.6,32.267a1.519,1.519,0,0,0,1.443,1.045H58.778a1.519,1.519,0,0,1,.883,2.755L49.406,43.4a1.519,1.519,0,0,0-.56,1.712l3.928,11.911a1.519,1.519,0,0,1-2.326,1.712l-10.356-7.4a1.519,1.519,0,0,0-1.766,0Z" transform="translate(9.408 9.973)" fill="#959ba4"/>
</svg>
